<?xml version="1.0" encoding="UTF-8"?>
<svg height="200" width="200" id="Layer_2" data-name="Layer 2" xmlns="http://www.w3.org/2000/svg" viewBox="0 0 832.96 748.3">
  <defs>
    <style>
      .cls-1 {
        fill: #C0EEF2;
      }

      .cls-1, .cls-2 {
        stroke-width: 0px;
      }

      .cls-2 {
        fill: #EEEEEE;
      }
    </style>
  </defs>
  <g id="Layer_1-2" data-name="Layer 1">
    <g id="SVGRepo_iconCarrier" data-name="SVGRepo iconCarrier">
      <path class="cls-2" d="m550.9,577.3c2.3-.4,4.6-.8,6.8-1.3-1.7-2-3.3-4-4.9-6-.7,2.3-1.4,4.8-1.9,7.3h0Z"/>
      <path class="cls-2" d="m731.7,570c1.7,5.8,3.1,12.4,4,18.5l2.7,20.6,20.5-3.5c2.2-.4,53.9-9.9,71.2-78.7,14.1-55.9-27.5-98.4-45.8-113.9-.9-15.2-2.7-29.4-5.2-42.8,7.2-25.5,10.9-52.1,10.9-79.3,0-77.7-30.3-150.8-85.2-205.7C649.8,30.2,576.8,0,499.1,0c-119.1,0-225.5,72.3-269.7,181.6-9.4-1.3-18.9-2-28.3-2C90.2,179.6,0,269.8,0,380.7s90.2,201.1,201.1,201.1h283c19.6,19.6,40.3,23.5,41.7,23.7l20.4,3.4,2.7-20.5c.5-3.7,1.2-7.5,2.1-11.2.6-2.5,1.2-5,1.9-7.3,1.6,2,3.3,4,4.9,6,10.5,12.8,21.4,25.2,27.6,29.8l5.3,3.9h103.3l5.3-3.9c7-5.2,20.5-21.1,32.4-35.7h0Zm-277.3-43.1c1.3,5.3,2.9,10.3,4.6,15H200.9c-88.9,0-161.1-72.3-161.1-161.1s72.3-161.1,161.1-161.1c51.1,0,99.6,24.6,129.9,65.8,6.5,8.9,19.1,10.8,28,4.3s10.8-19.1,4.3-28c-18.3-24.9-42.4-45.5-69.8-59.7-8-4.1-16.2-7.7-24.7-10.7,39.4-91.4,129.6-151.4,230.4-151.4,136.9,0,248.6,110.3,250.9,246.7-10.7-19.8-22.6-35.7-33.6-47.9-32.5-36.3-64.8-50.4-66.1-51l-7.9-3.4-7.9,3.4c-1.4.6-33.7,14.7-66.1,51-28.5,31.8-62.9,87.6-68,174.3-18.4,15.4-60,57.9-45.9,113.8Zm225,42.8h-74.4c-.3-.4-.7-.7-1-1.1-.1-.1-.2-.2-.2-.3-.4-.4-.7-.8-1.1-1.2-8.8-9.8-23.5-27.9-35.6-43.7l-9.6-12.5-14.4,6.4c-.7.3-1.4.6-2,1l-.6.3-1.5.9c-.2.1-.4.2-.6.4l-1.8,1.2c-.2.2-.4.3-.6.5l-1.2.9c-.3.2-.5.5-.8.7-.3.3-.6.6-1,.9-.5.5-1,.9-1.4,1.4l-.8.8c-.3.4-.7.7-1,1.1-.2.2-.4.4-.5.6-.4.4-.7.9-1.1,1.3l-.1.1-2.4,3.3-.1.1-1.2,1.8-.1.1c-1.2,1.9-2.3,4-3.3,6.2-.5,1.1-1,2.2-1.6,3.4,0,.1-.1.1-.1.2-.3.6-.5,1.2-.8,1.8-.3.7-.6,1.4-.8,2.1-.2.4-.3.8-.5,1.3-.3.9-.7,1.8-1,2.7-.1.2-.2.5-.2.7-.4,1.1-.7,2.2-1.1,3.4-.5-.4-1-.9-1.5-1.4l-1.3-1.3-.2-.2c-4-4.1-8.2-9.6-11.8-16.8-.4-.9-.9-1.8-1.3-2.7,0-.1-.1-.1-.1-.2l-1.2-2.7c0-.1-.1-.2-.1-.3-.4-.9-.7-1.8-1-2.7-.1-.2-.1-.3-.2-.5l-.9-2.7c-.1-.2-.2-.4-.2-.7-.3-.9-.6-1.8-.8-2.7-.1-.3-.2-.5-.2-.8-.3-1.2-.7-2.4-1-3.7-10.7-42.6,37.6-77.4,38-77.7l8.2-5.7.3-10c2.1-63.5,21.2-116.2,56.9-156.8,17.9-20.3,35.7-32.4,45.6-38.2,9.9,5.8,27.7,17.9,45.6,38.2,1.4,1.6,2.7,3.2,4,4.8.4.5.7.9,1.1,1.4,1,1.3,2,2.5,3,3.8l.9,1.2c1.3,1.6,2.5,3.3,3.7,5,.2.3.4.6.7.9,1,1.4,2,2.8,3,4.3.3.5.6,1,1,1.4,1,1.5,2,3.1,3,4.7.1.2.3.4.4.6l3.3,5.4c.2.4.5.8.7,1.2.9,1.5,1.7,3,2.5,4.5.2.4.5.9.7,1.3,1,1.9,2,3.8,3,5.8.9,1.9,1.9,3.8,2.7,5.8.2.4.4.9.6,1.3.8,1.7,1.5,3.4,2.3,5.2.1.3.2.6.4.8.9,2,1.7,4.1,2.5,6.2.1.3.2.5.3.8.7,1.8,1.4,3.7,2,5.5.1.4.3.8.4,1.2,1.5,4.2,2.8,8.6,4.1,12.9.1.4.2.7.3,1.1.5,1.9,1.1,3.9,1.6,5.8.1.3.2.7.3,1,1.1,4.3,2.1,8.7,2.9,13.1.1.4.2.9.3,1.3l.9,5.1.3,1.5c.3,1.8.6,3.5.8,5.3.1.4.1.7.2,1.1l.9,6.6c.3,2.1.5,4.3.7,6.4.1.6.1,1.2.2,1.9.1,1.6.3,3.1.4,4.7.1.7.1,1.5.2,2.2.1,1.6.2,3.1.3,4.7,0,.7.1,1.3.1,2,.1,2.2.2,4.5.3,6.7l.3,10,5.5,3.8,2.7,1.9c.5.3,48.8,35.1,38.1,77.8-5.1,20.1-13.9,32.1-21.9,39.2-6.4-20.8-15.6-33.6-27.9-39.1l-14.4-6.4-9.6,12.5c-13.3,17.6-29.8,37.8-38.1,46.6h0Z"/>
      <path class="cls-1" d="m639.9,310.2c-31.2,0-56.5,25.4-56.5,56.5s25.4,56.5,56.5,56.5,56.5-25.4,56.5-56.5-25.3-56.5-56.5-56.5Zm0,93.1c-20.1,0-36.5-16.4-36.5-36.5s16.4-36.5,36.5-36.5,36.5,16.4,36.5,36.5-16.4,36.5-36.5,36.5Zm-26.5,225.6c-5.5,0-10,4.5-10,10v99.4c0,5.5,4.5,10,10,10s10-4.5,10-10v-99.4c0-5.5-4.5-10-10-10Z"/>
      <path class="cls-2" d="m675,618.9c-11,0-20,9-20,20v28.8c0,11,9,20,20,20s20-9,20-20v-28.8c0-11.1-9-20-20-20Zm-92.3-497.8c2.1-5.1-.3-11-5.4-13.1-78.2-32.3-135.6-15.6-170,4.1-37.3,21.4-55.8,50.4-56.6,51.6-2.9,4.7-1.5,10.8,3.1,13.8,1.7,1,3.5,1.5,5.3,1.5,3.3,0,6.6-1.7,8.5-4.7.2-.3,16.6-26,49.6-44.9,44.3-25.4,95.6-26.4,152.4-3,5.1,2.3,11-.2,13.1-5.3h0Z"/>
    </g>
  </g>
</svg>