<svg width="200" height="200" viewBox="0 0 211 236" fill="none" xmlns="http://www.w3.org/2000/svg">
<path fill-rule="evenodd" clip-rule="evenodd" d="M99.0737 1.32814C96.5987 2.01414 75.6737 13.4791 52.5737 26.8041C8.07975 52.4711 3.68175 55.6331 1.26675 63.6931C-0.42225 69.3311 -0.42225 166.557 1.26675 172.195C3.68475 180.264 8.04475 183.387 53.1597 209.369C99.3817 235.989 101.713 237.015 110.574 234.643C113.514 233.856 132.882 223.322 157.574 209.08C202.069 183.417 206.466 180.256 208.881 172.195C210.57 166.557 210.57 69.3311 208.881 63.6931C206.453 55.5901 202.098 52.4591 157.574 26.7991C120.426 5.38914 109.198 -0.288858 104.606 0.0111419C104.038 0.0491419 101.549 0.641141 99.0737 1.32814ZM115.276 12.8431C119.29 14.9871 139.224 26.3801 159.574 38.1601C187.872 54.5411 197.103 60.3621 198.824 62.9091L201.074 66.2401V117.86V169.48L198.702 172.962C196.824 175.72 187.55 181.512 154.099 200.819C130.872 214.226 110.339 225.664 108.471 226.237C106.114 226.96 104.034 226.96 101.677 226.237C99.8087 225.664 79.2757 214.226 56.0487 200.819C22.5977 181.512 13.3238 175.72 11.4458 172.962L9.07375 169.48V117.86V66.2401L11.3237 62.9181C13.0447 60.3771 22.8657 54.2101 53.0737 36.6991C96.5317 11.5071 101.309 8.96814 105.276 8.95414C106.763 8.94814 111.263 10.6991 115.276 12.8431ZM91.5737 52.5071C80.0637 54.7671 67.3398 61.7291 58.1838 70.7751C51.8688 77.0141 49.5117 80.2611 45.7127 87.9561C35.6937 108.253 35.6698 127.585 45.6378 147.78C52.1348 160.941 62.1497 170.94 75.2377 177.329C95.6627 187.302 114.473 187.307 134.876 177.347C142.329 173.708 145.708 171.275 151.876 165.11C156.11 160.877 160.36 156.004 161.321 154.28L163.067 151.147L149.067 143.045C141.368 138.59 134.8 134.944 134.474 134.944C134.147 134.944 131.877 137.171 129.429 139.894C126.865 142.746 122.563 146.03 119.277 147.644C114.381 150.048 112.371 150.443 105.074 150.434C98.5057 150.427 95.5107 149.936 91.8977 148.273C85.2847 145.231 78.5797 138.674 75.3437 132.086C71.6647 124.593 71.3897 112.061 74.7447 104.768C77.7867 98.1551 84.3437 91.4501 90.9317 88.2141C95.7527 85.8471 97.8097 85.4441 105.074 85.4441C112.36 85.4441 114.389 85.8441 119.277 88.2441C122.563 89.8581 126.865 93.1421 129.429 95.9941C131.877 98.7171 134.147 100.944 134.474 100.944C134.8 100.944 141.368 97.2981 149.067 92.8431L163.067 84.7411L161.321 81.6081C160.36 79.8841 156.11 75.0111 151.876 70.7781C135.948 54.8551 113.795 48.1431 91.5737 52.5071ZM151.956 109.694C151.89 111.207 151.89 112.782 151.956 113.194C152.021 113.606 150.274 113.944 148.074 113.944H144.074V117.944V121.944H148.074C150.274 121.944 152.021 122.282 151.956 122.694C151.89 123.106 151.89 124.682 151.956 126.194C152.061 128.648 152.451 128.944 155.574 128.944C158.907 128.944 159.074 128.777 159.074 125.444C159.074 122.027 159.169 121.944 163.074 121.944H167.074V117.944V113.944H163.074C159.169 113.944 159.074 113.861 159.074 110.444C159.074 107.111 158.907 106.944 155.574 106.944C152.451 106.944 152.061 107.24 151.956 109.694ZM179.074 110.444C179.074 113.777 178.907 113.944 175.574 113.944C172.157 113.944 172.074 114.039 172.074 117.944C172.074 121.849 172.157 121.944 175.574 121.944C178.907 121.944 179.074 122.111 179.074 125.444C179.074 128.861 179.169 128.944 183.074 128.944C186.965 128.944 187.074 128.851 187.074 125.504C187.074 122.252 187.278 122.048 190.824 121.754C194.384 121.46 194.574 121.267 194.574 117.944C194.574 114.621 194.384 114.428 190.824 114.134C187.278 113.84 187.074 113.636 187.074 110.384C187.074 107.037 186.965 106.944 183.074 106.944C179.169 106.944 179.074 107.027 179.074 110.444Z" fill="#EEEEEE"/>
</svg>
