<?xml version="1.0" encoding="UTF-8"?>
<svg height="200" width="200" id="Layer_2" data-name="Layer 2" xmlns="http://www.w3.org/2000/svg" viewBox="0 0 584.14 577.19">
  <defs>
    <style>
      .cls-1 {
        fill: #C0EEF2;
      }

      .cls-1, .cls-2 {
        stroke-width: 0px;
      }

      .cls-2 {
        fill: #EEEEEE;
      }
    </style>
  </defs>
  <g id="Layer_1-2" data-name="Layer 1">
    <path class="cls-2" d="m7.81,266.72c4.3,0,7.81-3.52,7.81-7.81v-7.81c0-4.3-3.52-7.81-7.81-7.81S0,246.8,0,251.09v7.81c0,4.3,3.52,7.81,7.81,7.81Zm0,39.06c4.3,0,7.81-3.52,7.81-7.81v-7.81c0-4.3-3.52-7.81-7.81-7.81S0,285.86,0,290.16v7.81c0,4.3,3.52,7.81,7.81,7.81Zm0,78.12c4.3,0,7.81-3.52,7.81-7.81v-7.81c0-4.3-3.52-7.81-7.81-7.81S0,363.98,0,368.28v7.81c0,4.3,3.52,7.81,7.81,7.81Zm0-39.06c4.3,0,7.81-3.52,7.81-7.81v-7.81c0-4.3-3.52-7.81-7.81-7.81S0,324.92,0,329.22v7.81c0,4.3,3.52,7.81,7.81,7.81Zm0-195.31c4.3,0,7.81-3.52,7.81-7.81v-7.81c0-4.3-3.52-7.81-7.81-7.81S0,129.61,0,133.91v7.81c0,4.3,3.52,7.81,7.81,7.81Zm0,39.06c4.3,0,7.81-3.52,7.81-7.81v-7.81c0-4.3-3.52-7.81-7.81-7.81S0,168.67,0,172.97v7.81c0,4.3,3.52,7.81,7.81,7.81Zm-.16-78.12h.16c4.22,0,7.73-3.44,7.81-7.66,0-2.03.31-4.14.78-6.09,1.02-4.22-1.64-8.44-5.86-9.38-4.22-1.02-8.44,1.64-9.38,5.86C.47,96.25.08,99.38,0,102.58c-.08,4.3,3.36,7.81,7.66,7.89h0Zm.16,312.5c4.3,0,7.81-3.52,7.81-7.81v-7.81c0-4.3-3.52-7.81-7.81-7.81S0,403.05,0,407.34v7.81c0,4.3,3.52,7.81,7.81,7.81Zm0-195.31c4.3,0,7.81-3.52,7.81-7.81v-7.81c0-4.3-3.52-7.81-7.81-7.81S0,207.73,0,212.03v7.81c0,4.3,3.52,7.81,7.81,7.81Zm0,234.38c4.3,0,7.81-3.52,7.81-7.81v-7.81c0-4.3-3.52-7.81-7.81-7.81S0,442.11,0,446.41v7.81c0,4.3,3.52,7.81,7.81,7.81ZM72.66,56.48h-7.81c-4.3,0-7.81,3.52-7.81,7.81s3.52,7.81,7.81,7.81h7.81c4.3,0,7.81-3.52,7.81-7.81s-3.52-7.81-7.81-7.81Zm35.7,462.89h-7.81c-4.3,0-7.81,3.52-7.81,7.81s3.52,7.81,7.81,7.81h7.81c4.3,0,7.81-3.52,7.81-7.81s-3.52-7.81-7.81-7.81Zm-39.06,0h-7.81c-4.3,0-7.81,3.52-7.81,7.81s3.52,7.81,7.81,7.81h7.81c4.3,0,7.81-3.52,7.81-7.81s-3.52-7.81-7.81-7.81ZM31.17,59.77c-2.89,1.09-5.7,2.42-8.28,4.06-3.67,2.27-4.84,7.03-2.66,10.7,1.48,2.42,4.06,3.75,6.72,3.75,1.41,0,2.81-.39,4.06-1.09,1.8-1.09,3.75-2.03,5.7-2.81,4.06-1.48,6.09-6.02,4.53-10.08-1.56-3.98-6.09-6.02-10.08-4.53h0Zm-15.55,428.36v-2.66c0-4.3-3.52-7.81-7.81-7.81S0,481.17,0,485.47v2.66c0,2.11.16,4.22.47,6.25.55,3.91,3.91,6.72,7.73,6.72.39,0,.7,0,1.09-.08,4.3-.62,7.27-4.53,6.64-8.83-.23-1.33-.31-2.73-.31-4.06Zm18.52,27.97c-1.95-.94-3.75-1.95-5.47-3.2-3.52-2.5-8.36-1.72-10.94,1.8-2.5,3.52-1.72,8.36,1.8,10.94,2.5,1.8,5.16,3.36,7.97,4.69,1.09.47,2.19.7,3.28.7,2.97,0,5.78-1.64,7.11-4.53,1.8-3.91.16-8.59-3.75-10.39h0ZM527.27,48.67h-95.94c-3.05-27.34-26.25-48.67-54.37-48.67h-180.47c-30.16,0-54.69,24.53-54.69,54.69v1.87c-3.67.47-6.48,3.52-6.72,7.27l-29.92-29.38c-3.52-3.44-9.61-1.02-9.61,3.83l-.31,51.95c0,4.84,6.02,7.34,9.53,3.91l30.23-29.06c.39,3.59,3.12,6.41,6.64,6.95v447.34h-2.27c-4.3,0-7.81,3.52-7.81,7.81s3.52,7.81,7.81,7.81h3.75c5.7,24.14,27.34,42.19,53.2,42.19h180.47c22.97,0,42.66-14.22,50.78-34.38h99.53c31.41,0,57.03-24.53,57.03-54.69V103.36c.16-30.16-25.39-54.69-56.87-54.69h0Zm-126.8,473.83c0,12.89-10.55,23.44-23.44,23.44h-180.47c-12.89,0-23.44-10.55-23.44-23.44V54.77c0-12.89,10.55-23.44,23.44-23.44h180.47c12.89,0,23.44,10.55,23.44,23.44v467.73Zm152.58-34.38c0,12.89-11.56,23.44-25.78,23.44h-95.55V79.92h95.63c14.22,0,25.78,10.55,25.78,23.44v384.77h-.08Z"/>
    <path class="cls-1" d="m480.78,492.03h-17.89c-4.3,0-7.81-3.52-7.81-7.81s3.52-7.81,7.81-7.81h17.89c18.52,0,33.59-13.98,33.59-31.25v-186.09c0-4.3,3.52-7.81,7.81-7.81s7.81,3.52,7.81,7.81v186.09c0,25.86-22.11,46.88-49.22,46.88Z"/>
    <path class="cls-2" d="m342.74,124.45h-111.95c-4.3,0-7.81-3.52-7.81-7.81s3.52-7.81,7.81-7.81h111.88c4.3,0,7.81,3.52,7.81,7.81s-3.44,7.81-7.73,7.81Z"/>
    <path class="cls-2" d="m342.74,174.84h-111.95c-4.3,0-7.81-3.52-7.81-7.81s3.52-7.81,7.81-7.81h111.88c4.3,0,7.81,3.52,7.81,7.81s-3.44,7.81-7.73,7.81Z"/>
    <path class="cls-2" d="m342.74,225.23h-111.95c-4.3,0-7.81-3.52-7.81-7.81s3.52-7.81,7.81-7.81h111.88c4.3,0,7.81,3.52,7.81,7.81s-3.44,7.81-7.73,7.81Z"/>
    <path class="cls-2" d="m286.8,327.34c-39.37,0-71.33,32.03-71.33,71.33s32.03,71.33,71.33,71.33,71.33-32.03,71.33-71.33-32.03-71.33-71.33-71.33h0Zm0,127.03c-30.7,0-55.7-25-55.7-55.7s25-55.7,55.7-55.7,55.7,25,55.7,55.7-25,55.7-55.7,55.7h0Z"/>
  </g>
</svg>