<?xml version="1.0" encoding="UTF-8"?>
<svg id="Layer_2" data-name="Layer 2" xmlns="http://www.w3.org/2000/svg" viewBox="0 0 526.73 227.26">
  <defs>
    <style>
      .cls-1 {
        fill: #010101;
        stroke-width: 0px;
      }

      .cls-2 {
        fill: #231f20;
        font-family: CourierNewPSMT, 'Courier New';
        font-size: 44px;
      }
    </style>
  </defs>
  <g id="Layer_1-2" data-name="Layer 1">
    <g>
      <path class="cls-1" d="m426.29,200.88c-55.38,0-100.44-45.06-100.44-100.44S370.91,0,426.29,0s100.44,45.06,100.44,100.44-45.04,100.44-100.44,100.44Zm0-198.03c-53.81,0-97.59,43.78-97.59,97.59s43.78,97.59,97.59,97.59,97.59-43.78,97.59-97.59S480.11,2.85,426.29,2.85Z"/>
      <g>
        <g>
          <circle class="cls-1" cx="422.76" cy="122.42" r="3.69"/>
          <path class="cls-1" d="m422.76,127.12c-2.59,0-4.72-2.11-4.72-4.72s2.11-4.72,4.72-4.72,4.72,2.11,4.72,4.72-2.11,4.72-4.72,4.72Zm0-7.39c-1.47,0-2.67,1.2-2.67,2.67s1.2,2.67,2.67,2.67,2.67-1.2,2.67-2.67c.02-1.47-1.18-2.67-2.67-2.67Z"/>
        </g>
        <path class="cls-1" d="m424.81,135.63c-13.05,0-23.64-20.17-23.64-44.98s10.62-44.98,23.64-44.98,23.64,20.17,23.64,44.98c.02,24.79-10.6,44.98-23.64,44.98Zm0-87.94c-11.92,0-21.62,19.27-21.62,42.95s9.69,42.95,21.62,42.95,21.62-19.27,21.62-42.95-9.69-42.95-21.62-42.95Z"/>
        <path class="cls-1" d="m426.66,135.01c-5.42,0-10.02-1.55-13.29-4.8-10.78-10.78-2.81-36.27,17.72-56.8,20.55-20.55,46.05-28.5,56.8-17.72,10.78,10.78,2.81,36.27-17.72,56.8-14.31,14.31-31.05,22.52-43.52,22.52Zm47.87-82.22c-11.82,0-28,8.07-41.97,22.04-19.75,19.75-27.72,43.96-17.72,53.93,9.98,9.98,34.16,2.03,53.93-17.72,19.75-19.75,27.72-43.96,17.72-53.93-2.93-2.93-7.07-4.32-11.96-4.32Z"/>
        <path class="cls-1" d="m423.38,135.29c-9.13,0-21.06-4.74-31.89-13.45-17.1-13.75-25.13-32.26-17.88-41.29,7.25-9.01,27.06-5.18,44.16,8.55h0c17.12,13.75,25.13,32.28,17.88,41.29-2.65,3.31-6.99,4.9-12.26,4.9Zm-37.47-57.69c-4.64,0-8.41,1.36-10.72,4.24-6.54,8.15,1.34,25.37,17.58,38.42,16.24,13.03,34.76,17.02,41.31,8.87,6.54-8.15-1.34-25.37-17.58-38.42h0c-10.54-8.45-22.02-13.11-30.59-13.11Z"/>
        <path class="cls-1" d="m399.34,151.18c-5.38,0-9.61-1.73-11.62-5.2-2.09-3.61-1.38-8.49,1.99-13.73,3.23-5.04,8.59-9.88,15.07-13.61,13.81-7.97,27.96-8.47,32.22-1.1,4.26,7.35-3.25,19.37-17.06,27.34-7.27,4.17-14.63,6.3-20.59,6.3Zm26.09-36.75c-5.64,0-12.81,2.03-19.63,5.98-6.2,3.59-11.32,8.19-14.39,12.95-2.93,4.56-3.63,8.69-1.95,11.6,3.55,6.14,17.02,5.3,29.43-1.87,12.4-7.17,19.87-18.41,16.32-24.55-1.57-2.77-5.18-4.11-9.78-4.11Z"/>
        <path class="cls-1" d="m431.07,155.38c-5.86,0-12.71-6.9-16.48-17.16h0c-2.01-5.46-2.81-11.04-2.25-15.68.6-4.88,2.65-8.19,5.76-9.33,6.28-2.33,14.59,5.04,18.91,16.74,4.32,11.7,2.77,22.68-3.51,25.01-.78.28-1.61.42-2.43.42Zm-14.57-17.86c3.79,10.28,11.24,17.38,16.28,15.54,5.04-1.87,6.1-12.1,2.31-22.38-3.79-10.28-11.24-17.4-16.28-15.54-2.37.86-3.93,3.59-4.44,7.67-.54,4.32.22,9.53,2.13,14.71h0Z"/>
        <path class="cls-1" d="m437.27,137.57c-3.71,0-8.25-1.3-12.75-3.89-8.61-4.98-13.25-12.55-10.56-17.22s11.56-4.44,20.19.54c4.01,2.31,7.33,5.3,9.33,8.43,2.15,3.33,2.57,6.44,1.22,8.79-1.28,2.23-4.01,3.35-7.45,3.35Zm-15.92-22.42c-2.65,0-4.7.76-5.6,2.33-2.07,3.57,2.43,10.18,9.82,14.43,7.37,4.26,15.34,4.84,17.4,1.28.94-1.65.54-4.01-1.16-6.66-1.83-2.85-4.9-5.62-8.63-7.77-4.15-2.39-8.47-3.61-11.82-3.61Z"/>
      </g>
    </g>
    <text class="cls-2" transform="translate(0 91.75)"><tspan x="0" y="0">Club de </tspan><tspan x="0" y="52.8">Programación </tspan><tspan x="0" y="105.6">Competitiva</tspan></text>
  </g>
</svg>