<svg width="200" height="200" viewBox="0 0 210 234" fill="none" xmlns="http://www.w3.org/2000/svg">
<path fill-rule="evenodd" clip-rule="evenodd" d="M95.5 1.80225C93.3 2.81725 73.05 14.2943 50.5 27.3073C23.374 42.9603 8.421 52.1743 6.311 54.5353C0.0530009 61.5403 0 62.0603 0 116.913C0 171.767 0.0530009 172.29 6.311 179.287C8.416 181.64 23.436 190.894 50.5 206.512C73.05 219.525 93.3 231.004 95.5 232.021C100.708 234.427 109.287 234.429 114.5 232.024C116.7 231.009 136.95 219.532 159.5 206.519C186.626 190.866 201.579 181.652 203.689 179.291C209.947 172.286 210 171.766 210 116.913C210 62.0623 209.948 61.5532 203.689 54.5243C201.564 52.1383 186.823 43.0562 159.5 27.2982C136.95 14.2942 116.7 2.82125 114.5 1.80525C109.292 -0.600749 100.712 -0.60175 95.5 1.80225ZM151.418 32.1632C174.547 45.5002 194.862 57.6293 196.563 59.1153C201.832 63.7203 202 65.5023 202 116.913C202 168.323 201.832 170.106 196.563 174.711C194.863 176.197 174.442 188.381 151.184 201.785C109.75 225.666 108.802 226.148 104.194 225.706C100.28 225.33 92.453 221.191 57.496 201.016C34.398 187.686 14.327 175.662 12.893 174.296C8.21 169.836 8 167.371 8 116.913C8 66.4553 8.21 63.9912 12.893 59.5292C14.327 58.1632 34.625 45.9983 58 32.4972C95.916 10.5972 100.978 7.94725 104.933 7.93125C108.912 7.91525 113.662 10.3913 151.418 32.1632ZM88.512 52.5272C77.124 55.2802 68.336 60.4993 58.461 70.3743C44.482 84.3533 39.03 97.4113 39.03 116.913C39.03 136.415 44.482 149.473 58.461 163.452C72.44 177.431 85.498 182.883 105 182.883C116.603 182.883 124.792 181.05 134.645 176.245C142.703 172.316 154.401 162.27 159.52 154.884C162.982 149.889 164.14 151.12 146.317 140.847L133.861 133.667L132.227 136.04C129.464 140.055 124.85 143.95 119.558 146.739C115.102 149.086 113.37 149.402 105 149.393C93.815 149.38 88.613 147.368 81.579 140.334C74.575 133.33 72.555 128.106 72.525 116.913C72.495 105.712 74.463 100.607 81.54 93.5312C88.653 86.4183 93.812 84.4133 105 84.4133C112.892 84.4133 115.278 84.8003 119.096 86.7013C123.943 89.1133 129.504 93.8093 132.243 97.8013L133.882 100.189L147.645 92.1883C155.215 87.7883 161.561 83.7303 161.748 83.1703C162.312 81.4763 152.54 70.0843 146.067 64.8883C138.765 59.0283 129.616 54.5063 120.912 52.4543C112.892 50.5633 96.482 50.6012 88.512 52.5272ZM152 109.353C152 112.605 151.796 112.809 148.25 113.103C144.69 113.397 144.5 113.59 144.5 116.913C144.5 120.236 144.69 120.429 148.25 120.723C151.796 121.017 152 121.221 152 124.473C152 127.738 152.178 127.913 155.5 127.913C158.833 127.913 159 127.746 159 124.413C159 121.08 159.167 120.913 162.5 120.913C165.917 120.913 166 120.818 166 116.913C166 113.008 165.917 112.913 162.5 112.913C159.167 112.913 159 112.746 159 109.413C159 106.08 158.833 105.913 155.5 105.913C152.178 105.913 152 106.088 152 109.353ZM180 109.413C180 112.838 179.913 112.913 175.94 112.913H171.879L172.19 116.663C172.483 120.209 172.704 120.43 176.25 120.723C179.796 121.017 180 121.221 180 124.473C180 127.738 180.178 127.913 183.5 127.913C186.833 127.913 187 127.746 187 124.413C187 121.08 187.167 120.913 190.5 120.913C193.917 120.913 194 120.818 194 116.913C194 113.008 193.917 112.913 190.5 112.913C187.167 112.913 187 112.746 187 109.413C187 106.08 186.833 105.913 183.5 105.913C180.167 105.913 180 106.08 180 109.413Z" fill="#EEEEEE"/>
</svg>
