<?xml version="1.0" encoding="UTF-8"?>
<svg height="200" width="200" id="Layer_2" data-name="Layer 2" xmlns="http://www.w3.org/2000/svg" viewBox="0 0 296.32 296.24">
  <defs>
    <style>
      .cls-1 {
        stroke-width: 0px;
        fill: #EEEEEE;
      }
    </style>
  </defs>
  <g id="Layer_1-2" data-name="Layer 1">
    <g>
      <path class="cls-1" d="m221.87,260.3c-8.77,0-17.24.02-25.71,0-6.26-.02-7-.75-7.02-6.87-.03-9.49,0-18.97,0-28.85h-21.65c0,3.8,0,7.58,0,11.36,0,11-.15,22.01.14,33,.05,2.06,1.41,4.54,2.95,6.01,4.12,3.94,5.65,8.5,3.75,13.46-2.05,5.34-6.34,8.09-12.04,7.73-5.08-.32-9.14-3.78-10.48-9.15-1.28-5.1.78-8.99,4.61-12.28,1.12-.97,2.51-2.48,2.52-3.75.17-15.32.11-30.63.11-46.36h-21.75c0,2.52,0,5.12,0,7.71,0,12.17-.13,24.34.13,36.5.04,2.07,1.3,4.66,2.85,6.05,5.57,4.97,6.33,12.39,1.34,17.66-4.62,4.89-12.28,4.98-16.96.2-5.07-5.17-4.5-12.67,1.06-17.66,1.41-1.26,2.97-3.3,3-5.01.24-14.17.14-28.34.11-42.5,0-.96-.24-1.93-.4-3.11h-21.23c0,8.18,0,16.28,0,24.38,0,1.83-.09,3.67.01,5.5.23,4.23-1.7,6.07-5.94,6.01-8.81-.11-17.62-.03-27.09-.03.54,5.93-2.32,11.6,4.01,16.36,4.98,3.75,4.11,12.22-.57,16.49-4.61,4.21-11.82,4.08-16.32-.3-4.53-4.41-4.97-12.55,0-16.49,3.57-2.83,4.26-5.82,3.95-9.8-.2-2.49-.05-5-.03-7.5.03-6.39,1.05-7.41,7.63-7.44,8.3-.04,16.59,0,25.2,0v-27.43c-6.69,0-13.3-.18-19.9.06-4.61.17-6.25-1.72-6.09-6.21.23-6.46.06-12.93.06-19.73h-27.4c0,7.14,0,14.23,0,21.33q0,11.47-11.66,11.47c-1.33,0-2.67.07-4-.01-3.56-.21-6.33.18-8.89,3.67-3.63,4.95-11.54,4.89-16.13.83-4.82-4.26-5.34-11.79-1.15-16.65,4.02-4.68,12.34-6.07,16.03-1.35,4.84,6.2,10.57,4.47,17.08,4.42,0-8.33,0-16.44,0-24.55,0-8.14.2-8.33,8.55-8.33,8.97,0,17.94,0,27.24,0v-21.69c-7.15,0-14.11,0-21.07,0-7.84,0-15.68-.18-23.5.13-1.93.07-4.34,1.23-5.62,2.69-5.11,5.84-12.71,6.6-18.02,1.43-4.8-4.68-4.72-12.33.17-16.96,5.42-5.13,12.93-4.34,17.93,1.73.93,1.12,2.48,2.44,3.76,2.45,15.31.17,30.62.11,46.31.11v-21.74c-5.32,0-10.59,0-15.87,0-9.67,0-19.34-.13-29.01.12-1.79.05-4.04,1.16-5.21,2.53-4.97,5.8-12.19,6.74-17.6,1.92-5.22-4.66-5.4-12.5-.41-17.29,5.34-5.12,12.93-4.36,17.98,1.6,1.03,1.21,2.77,2.56,4.19,2.58,14.67.18,29.34.1,44.02.06.63,0,1.25-.29,2.06-.5v-21.13c-9.26,0-18.36,0-27.46,0-8.22,0-8.43-.21-8.43-8.46,0-7.97,0-15.95,0-24.57-5.94.58-11.64-2.33-16.37,4.03-3.63,4.87-11.76,4.17-16.14-.2-4.56-4.55-4.58-12.03-.06-16.68,4.28-4.4,12.3-5.13,16.1-.33,3.26,4.11,6.83,4.28,11.19,4.27,14.07-.03,14.17-2.05,14.02,14.08-.06,6.13,0,12.26,0,18.69h27.4c0-6.52-.02-12.97,0-19.41.02-5.99.52-6.48,6.67-6.49,6.3-.02,12.6,0,19.24,0v-27.43c-7.81,0-15.57,0-23.32,0-9.07,0-9.49-.43-9.49-9.61,0-1.67-.07-3.34.01-5,.2-4.02-.13-7.3-4-10.26-4.86-3.71-4.45-11.69-.2-16.12,4.33-4.51,11.58-4.88,16.32-.84,4.65,3.98,6.07,12.36,1.39,16.04-6.17,4.84-4.5,10.56-4.42,17.09,8.48,0,16.76,0,25.04,0,7.46.01,7.84.4,7.85,8.05,0,9.14,0,18.27,0,27.73h21.31c.11-1.46.32-3.03.33-4.61.03-13.34.12-26.67-.11-40-.03-1.92-1.25-4.33-2.7-5.62-5.67-5.02-6.54-12.31-1.68-17.66,4.65-5.12,12.55-5.17,17.3-.1,5.1,5.44,4.28,12.9-1.85,17.9-1.04.85-2.37,2.18-2.38,3.31-.16,15.47-.11,30.94-.11,46.76h21.74c0-6.2,0-12.32,0-18.43,0-8.83.14-17.67-.12-26.5-.05-1.79-1.19-4.03-2.56-5.21-5.82-5-6.73-12.19-1.88-17.59,4.66-5.18,12.56-5.34,17.31-.36,5.09,5.33,4.31,12.96-1.68,17.98-1.13.94-2.5,2.46-2.51,3.72-.17,15.31-.11,30.62-.11,46.33h21.64c0-9.32,0-18.59,0-27.87,0-7.46.39-7.84,8.05-7.84,8.14,0,16.27,0,25.06,0,0-4.04.2-7.66-.11-11.24-.1-1.19-1.33-2.48-2.35-3.37-5.63-4.87-6.43-12.57-1.69-17.62,4.65-4.96,12.75-4.91,17.38.12,4.68,5.09,3.74,12.76-1.86,17.66-1.26,1.1-2.23,3.12-2.37,4.8-.34,3.97-.26,8-.07,11.99.21,4.54-1.97,6.38-6.29,6.35-7-.04-14.01,0-21.01,0-1.78,0-3.56,0-5.61,0v27.43c6.82,0,13.44.14,20.06-.05,4.25-.13,6.1,1.45,5.96,5.82-.2,6.62-.05,13.25-.05,20.16h27.4c0-8.28-.02-16.38,0-24.48.02-7.46.91-8.34,8.26-8.35,2.33,0,4.67-.07,7,.01,3.69.13,6.65-.16,9.37-3.76,3.84-5.09,11.99-4.78,16.49-.33,4.59,4.53,4.71,12.05.27,16.69-4.25,4.44-12.54,5.35-16.11.52-4.72-6.38-10.48-3.57-16.58-4.27,0,9.19.03,17.82-.01,26.44-.03,5.83-.86,6.65-6.7,6.67-9.62.03-19.25,0-29.13,0v21.42c1.59.09,3.19.25,4.79.25,13.17.02,26.35.14,39.51-.12,2.07-.04,4.66-1.28,6.06-2.83,5.04-5.59,12.4-6.41,17.69-1.52,5.06,4.68,5.03,12.58-.07,17.31-5.3,4.91-12.7,4.13-17.61-1.6-1.12-1.31-3.07-2.68-4.65-2.7-14.5-.2-29.01-.11-43.51-.09-.63,0-1.27.19-2.17.34v21.37h15.14c8.67,0,17.34-.08,26.01.03,4.18.05,7.61-.03,10.73-4.14,4-5.28,12.13-4.57,16.76.37,4.27,4.56,4.16,11.82-.24,16.26-4.8,4.85-12.77,5.24-16.76-.26-2.86-3.95-6.04-3.87-9.85-3.86-13.8.03-27.61.01-41.75.01v21.69c9.65,0,19.1-.01,28.56,0,6.51.01,7.2.69,7.22,7.16.02,8.46,0,16.92,0,25.94,4.13,0,7.77.2,11.36-.12,1.18-.11,2.43-1.4,3.33-2.44,4.83-5.61,12.62-6.34,17.64-1.54,4.77,4.55,4.81,12.38.09,17.04-4.93,4.86-12.78,4.13-17.72-1.27-1.32-1.45-3.67-2.43-5.67-2.68-3.45-.43-6.99-.1-10.49-.12-6.04-.04-7.19-1.16-7.23-7.37-.06-8.32-.01-16.65-.01-25.36h-27.4c0,6.25.01,12.67,0,19.08-.02,6.32-.44,6.73-6.93,6.74-6.15.01-12.31,0-18.89,0v27.43c8.25,0,16.37-.02,24.49,0,7.4.02,8.22.86,8.23,8.36,0,1.83.04,3.67,0,5.5-.1,4.29-.11,7.97,4.17,11.23,4.85,3.7,4.17,11.78-.19,16.09-4.46,4.41-11.68,4.59-16.32.42-4.45-4-5.11-11.15-1.46-15.86q5.54-7.16,4.55-17.05ZM80.95,80.86v134.34h134.33V80.86H80.95Zm207.55-11.52c-1.83-1.27-3.15-2.82-3.92-2.58-1.27.39-2.2,1.93-3.26,2.99,1.19.91,2.29,2.31,3.6,2.55.79.15,1.91-1.51,3.59-2.96ZM69.94,16.36c1.19-2.35,2.39-3.68,2.33-4.96-.04-.84-1.95-2.31-2.89-2.21-1.01.1-2.7,1.81-2.6,2.64.16,1.28,1.58,2.41,3.16,4.54Zm160.89-4.21c-1.67-1.43-2.75-3.05-3.66-2.96-1.19.12-2.87,1.44-3.13,2.54-.2.84,1.44,3,2.28,3.02,1.24.02,2.5-1.35,4.51-2.59ZM16.37,226.36c-2.34-1.2-3.67-2.41-4.96-2.37-.83.03-2.3,1.95-2.21,2.91.09,1,1.81,2.69,2.64,2.59,1.28-.15,2.41-1.56,4.54-3.13Zm57.33,58.14c-1.93-1.47-3.07-3-4.26-3.04-.92-.03-2.77,1.98-2.62,2.8.2,1.14,1.76,2.53,2.98,2.84.81.2,2.05-1.3,3.91-2.6Zm152.86,3.94c1.48-1.7,3.19-2.89,3.02-3.66-.3-1.31-1.77-2.36-2.74-3.53-1,1.1-2.48,2.08-2.82,3.35-.21.8,1.3,2.05,2.55,3.83ZM133.29,7.83c-1.45,1.71-3.09,2.84-2.94,3.64.23,1.28,1.65,2.35,2.57,3.51,1.04-1.07,2.57-2,2.95-3.27.23-.77-1.31-2.07-2.58-3.89Zm29.68,0c-1.24,1.83-2.76,3.14-2.52,3.91.39,1.27,1.92,2.18,2.97,3.25.91-1.17,2.32-2.25,2.54-3.54.14-.81-1.52-1.92-2.99-3.62ZM11.57,73.66c1.55-1.87,3.11-2.94,3.21-4.12.07-.9-1.83-2.83-2.65-2.72-1.15.15-2.6,1.62-2.96,2.81-.24.81,1.18,2.11,2.4,4.03Zm4.56,59.59c-1.78-1.42-2.91-3.02-3.86-2.91-1.17.13-2.7,1.5-3.08,2.66-.22.68,1.51,2.85,2.32,2.83,1.29-.03,2.55-1.34,4.62-2.58Zm268.1-4.23c-1.32,1.78-2.95,3.13-2.71,3.87.41,1.25,1.99,2.12,3.08,3.14.9-1.13,2.34-2.18,2.53-3.41.13-.84-1.49-1.94-2.9-3.6ZM11.73,167.26c1.49-1.7,3.25-2.93,3.07-3.68-.31-1.27-1.85-2.24-2.87-3.33-.98,1.05-2.47,1.99-2.75,3.2-.19.84,1.31,2.06,2.55,3.81Zm273.03.15c1.21-1.99,2.62-3.31,2.38-4.14-.35-1.19-1.82-2.64-2.98-2.8-.8-.11-2.7,1.83-2.62,2.74.1,1.19,1.64,2.27,3.23,4.2Zm3.73,58.89c-1.87-1.14-3.17-2.54-3.98-2.29-1.24.38-2.13,1.89-3.16,2.92,1.19.91,2.29,2.33,3.6,2.55.78.13,1.88-1.61,3.55-3.17Zm-155.74,53.66c-1.21,2.27-2.44,3.59-2.39,4.85.03.86,1.92,2.33,2.89,2.27.98-.06,2.7-1.79,2.6-2.6-.15-1.28-1.56-2.41-3.1-4.52Zm34.53,4.23c-1.79-1.32-3.13-2.95-3.87-2.72-1.25.4-2.11,1.99-3.14,3.08,1.13.91,2.17,2.34,3.41,2.53.84.13,1.95-1.49,3.6-2.89Z"/>
      <path class="cls-1" d="m147.9,202.11c-15.34,0-30.68.01-46.01,0-6.11,0-7.7-1.57-7.7-7.61-.02-31-.02-62,0-93.01,0-5.68,1.69-7.32,7.47-7.32,31.01-.02,62.02-.02,93.03,0,5.77,0,7.45,1.66,7.45,7.35.02,31,.02,62,0,93.01,0,6.01-1.61,7.57-7.73,7.58-15.5.02-31.01,0-46.51,0Zm-44.41-98.77v89.43h89.45v-89.43h-89.45Z"/>
      <path class="cls-1" d="m187.14,138.11c0,3.5.03,6.99,0,10.49-.03,3.15-.94,5.73-4.71,5.66-3.54-.07-4.25-2.51-4.24-5.5.04-7.32.04-14.65,0-21.97-.02-3.04,1.13-5.89,4.26-5.35,1.81.31,4.08,3.18,4.49,5.23.73,3.68.21,7.62.21,11.44Z"/>
    </g>
  </g>
</svg>