<?xml version="1.0" encoding="utf-8"?>
<!-- Generator: Adobe Illustrator 27.4.1, SVG Export Plug-In . SVG Version: 6.00 Build 0)  -->
<svg version="1.1" id="Layer_1" xmlns="http://www.w3.org/2000/svg" xmlns:xlink="http://www.w3.org/1999/xlink" x="0px" y="0px"
	 viewBox="0 0 1080 1080" style="enable-background:new 0 0 1080 1080;" xml:space="preserve">
<g>
	<path d="M555.8,30c1.8,0.3,3.59,0.77,5.4,0.86c111.83,5.29,211.65,42.87,298.72,113.01c88.23,71.08,146.67,161.93,175.7,271.54
		c7.86,29.69,12.93,59.89,14.86,90.55c1.75,27.78,2.05,55.62-0.39,83.35c-8.11,92.1-38.57,176.25-91.94,251.76
		c-58.34,82.54-134.46,143.02-228.1,181.28c-8.51,3.48-17.18,6.59-25.86,9.66c-5.76,2.04-11.72,2.49-17.82,1.38
		c-11.14-2.03-18.84-10.24-19.88-21.54c-0.21-2.33-0.16-4.69-0.16-7.03c0.15-44.73,0.27-89.47,0.51-134.2
		c0.1-18.19-1.46-36.14-6.91-53.58c-5.12-16.39-12.99-31.19-25.51-43.23c-0.34-0.33-0.55-0.78-1.27-1.82
		c5.26-0.73,10.11-1.39,14.96-2.08c28.91-4.09,57.32-10.22,84.57-20.99c28.89-11.41,54.73-27.43,76.05-50.27
		c21.33-22.85,35.54-49.73,44.65-79.44c6.81-22.19,10.88-44.91,12.19-68.06c0.8-14.2,1.42-28.47,1.01-42.67
		c-1.38-46.89-17.43-88.27-47.87-124.02c-1.41-1.65-2.81-3.3-3.97-4.68c2.25-8.57,4.83-16.71,6.49-25.04
		c5.96-29.99,3.86-59.66-4.43-88.96c-1.82-6.43-4.34-12.67-6.24-19.08c-0.98-3.29-2.94-4.43-6.16-4.69
		c-12.01-0.99-23.72,0.64-35.31,3.58c-21.57,5.47-41.77,14.38-61.08,25.23c-12.54,7.05-24.69,14.81-36.88,22.46
		c-2.64,1.66-4.84,2.08-7.9,1.25c-45.59-12.33-92.05-17.47-139.22-16.07c-36.95,1.1-73.38,6.16-109.06,15.96
		c-3.63,1-6.24,0.37-9.26-1.63c-23.21-15.39-47.32-29.15-73.36-39.25c-13.3-5.16-26.89-9.4-41.12-10.94
		c-6.13-0.66-12.36-0.4-18.55-0.46c-2.5-0.02-4.33,0.89-5.35,3.59c-14.97,39.76-19.35,80.2-8.05,121.68
		c1.05,3.87,2.45,7.64,3.8,11.84c-0.77,0.97-1.65,2.16-2.62,3.27c-25.18,28.86-40.92,62.18-47.19,99.96
		c-2.87,17.28-2.97,34.69-2.36,52.12c1.15,33.33,5.99,66.01,17.57,97.45c20.14,54.65,57.73,92.45,111.21,114.85
		c24.53,10.28,50.12,16.71,76.29,21c9.07,1.48,18.19,2.7,27.66,4.1c-0.46,0.77-0.68,1.38-1.09,1.79
		c-14.46,13.95-22.64,31.33-27.47,50.5c-1.02,4.05-1.84,8.17-2.45,12.3c-0.43,2.94-1.66,4.6-4.54,5.78
		c-12.3,5.04-24.96,8.74-38.12,10.56c-17,2.35-33.74,1.28-50.06-4.39c-19.11-6.64-34.32-18.61-46.66-34.38
		c-3.81-4.87-7.24-10.06-10.56-15.28c-8.72-13.67-19.08-25.88-31.9-35.88c-10.85-8.47-22.82-14.64-36.57-16.78
		c-8.34-1.29-16.72-1.23-24.98,0.58c-10.57,2.32-12.74,8.59-5.94,16.97c4.48,5.53,9.98,10.02,16.19,13.37
		c10.89,5.88,19.25,14.42,26.61,24.09c12.93,17.01,23.8,35.2,31.79,55.08c11.57,28.77,33.26,46.32,62.36,55.33
		c21.4,6.63,43.42,8.1,65.62,6.5c12.84-0.93,25.6-2.92,38.4-4.42c1.47-0.17,2.94-0.32,4.73-0.51c0.11,1.68,0.27,3.15,0.29,4.62
		c0.24,29.15,0.48,58.3,0.69,87.45c0.02,2.51,0.09,5.06-0.31,7.52c-2.14,13.27-12.02,21.17-26.48,20.85
		c-4.11-0.09-8.38-0.79-12.27-2.12C225.78,981.66,111.63,871.56,56.5,728.26c-14.73-38.29-24.64-77.84-29.48-118.6
		c-1.64-13.79-2.58-27.67-3.9-41.5c-0.17-1.81-0.74-3.58-1.12-5.36c0-12.06,0-24.13,0-36.19c0.62-4.27,1.57-8.53,1.81-12.83
		c1.61-29.33,5.91-58.28,12.56-86.86c36.07-155,144.45-286.43,289.98-351.63c59.62-26.71,122.03-41.8,187.38-44.43
		c1.63-0.07,3.25-0.56,4.87-0.86C531,30,543.4,30,555.8,30z"/>
</g>
</svg>
