<?xml version="1.0" encoding="utf-8"?>
<!-- Generator: Adobe Illustrator 27.1.0, SVG Export Plug-In . SVG Version: 6.00 Build 0)  -->
<svg version="1.1" id="Capa_1" xmlns="http://www.w3.org/2000/svg" xmlns:xlink="http://www.w3.org/1999/xlink" x="0px" y="0px"
	 viewBox="0 0 1000 1000" style="enable-background:new 0 0 1000 1000;" xml:space="preserve">
<g>
	<g>
		<path fill="#000" d="M499.9,1000C224,1000-0.5,775.5-0.5,499.6S224-0.8,499.9-0.8s500.4,224.5,500.4,500.4S775.9,1000,499.9,1000z M499.9,13.4
			c-268.1,0-486.2,218.1-486.2,486.2s218.1,486.2,486.2,486.2s486.2-218.1,486.2-486.2S768,13.4,499.9,13.4z"/>
	</g>
	<g>
		<g>
			<circle fill="#000" cx="482.3" cy="609.1" r="18.4"/>
			<path fill="#000" d="M482.3,632.5c-12.9,0-23.5-10.5-23.5-23.5c0-12.9,10.5-23.5,23.5-23.5c12.9,0,23.5,10.5,23.5,23.5
				S495.3,632.5,482.3,632.5z M482.3,595.7c-7.3,0-13.3,6-13.3,13.3s6,13.3,13.3,13.3s13.3-6,13.3-13.3
				C495.7,601.7,489.7,595.7,482.3,595.7z"/>
		</g>
		<path fill="#000" d="M492.5,674.9c-65,0-117.8-100.5-117.8-224.1s52.9-224.1,117.8-224.1s117.8,100.5,117.8,224.1
			C610.4,574.3,557.5,674.9,492.5,674.9z M492.5,236.8c-59.4,0-107.7,96-107.7,214s48.3,214,107.7,214s107.7-96,107.7-214
			S551.9,236.8,492.5,236.8z"/>
		<path fill="#000" d="M501.7,671.8c-27,0-49.9-7.7-66.2-23.9c-53.7-53.7-14-180.7,88.3-283c102.4-102.4,229.4-142,283-88.3
			c53.7,53.7,14,180.7-88.3,283C647.2,630.9,563.8,671.8,501.7,671.8z M740.2,262.2c-58.9,0-139.5,40.2-209.1,109.8
			c-98.4,98.4-138.1,219-88.3,268.7c49.7,49.7,170.2,10.1,268.7-88.3c98.4-98.4,138.1-219,88.3-268.7
			C785.2,269.1,764.6,262.2,740.2,262.2z"/>
		<path fill="#000" d="M485.4,673.2c-45.5,0-104.9-23.6-158.9-67c-85.2-68.5-125.2-160.7-89.1-205.7c36.1-44.9,134.8-25.8,220,42.6l0,0
			c85.3,68.5,125.2,160.8,89.1,205.7C533.3,665.3,511.7,673.2,485.4,673.2z M298.7,385.8c-23.1,0-41.9,6.8-53.4,21.1
			c-32.6,40.6,6.7,126.4,87.6,191.4c80.9,64.9,173.2,84.8,205.8,44.2s-6.7-126.4-87.6-191.4l0,0C398.6,409,341.4,385.8,298.7,385.8z
			"/>
		<path fill="#000" d="M365.6,752.4c-26.8,0-47.9-8.6-57.9-25.9c-10.4-18-6.9-42.3,9.9-68.4c16.1-25.1,42.8-49.2,75.1-67.8
			c68.8-39.7,139.3-42.2,160.5-5.5c21.2,36.6-16.2,96.5-85,136.2C432,741.8,395.3,752.4,365.6,752.4z M495.6,569.3
			c-28.1,0-63.8,10.1-97.8,29.8c-30.9,17.9-56.4,40.8-71.7,64.5c-14.6,22.7-18.1,43.3-9.7,57.8c17.7,30.6,84.8,26.4,146.6-9.3
			s99-91.7,81.3-122.3C536.5,576,518.5,569.3,495.6,569.3z"/>
		<path fill="#000" d="M523.7,773.3c-29.2,0-63.3-34.4-82.1-85.5l0,0c-10-27.2-14-55-11.2-78.1c3-24.3,13.2-40.8,28.7-46.5
			c31.3-11.6,72.7,25.1,94.2,83.4c21.5,58.3,13.8,113-17.5,124.6C531.9,772.6,527.8,773.3,523.7,773.3z M451.1,684.3
			c18.9,51.2,56,86.6,81.1,77.4c25.1-9.3,30.4-60.3,11.5-111.5s-56-86.7-81.1-77.4c-11.8,4.3-19.6,17.9-22.1,38.2
			C437.8,632.5,441.6,658.5,451.1,684.3L451.1,684.3z"/>
		<path fill="#000" d="M554.6,684.6c-18.5,0-41.1-6.5-63.5-19.4c-42.9-24.8-66-62.5-52.6-85.8s57.6-22.1,100.6,2.7c20,11.5,36.5,26.4,46.5,42
			c10.7,16.6,12.8,32.1,6.1,43.8C585.3,679,571.7,684.6,554.6,684.6z M475.3,572.9c-13.2,0-23.4,3.8-27.9,11.6
			c-10.3,17.8,12.1,50.7,48.9,71.9c36.7,21.2,76.4,24.1,86.7,6.4c4.7-8.2,2.7-20-5.8-33.2c-9.1-14.2-24.4-28-43-38.7
			C513.5,579,492,572.9,475.3,572.9z"/>
	</g>
</g>
</svg>
