<?xml version="1.0" encoding="UTF-8"?>
<svg height="200" width="200" id="Layer_2" data-name="Layer 2" xmlns="http://www.w3.org/2000/svg" viewBox="0 0 511.79 558.69">
  <defs>
    <style>
      .cls-1 {
        stroke-width: 0px;
        fill: #EEEEEE;
      }
    </style>
  </defs>
  <g id="Layer_1-2" data-name="Layer 1">
    <g>
      <path class="cls-1" d="m388.64,558.69H123.14v-265.5h265.5v265.5Zm-24.15-240.82h-216.66v216.62h216.66v-216.62Z"/>
      <path class="cls-1" d="m335.68,429.34c-5.63,3.63-10.62,6.85-15.64,10.09-1.18-1.55-2.13-3.05-3.32-4.33-3.24-3.49-7.26-4.73-11.92-3.67-3.16.72-5.53,2.57-6.2,5.74-.74,3.53-.27,7.12,3.14,9.18,3.73,2.25,7.76,3.99,11.63,6.02,5.52,2.89,11.35,5.34,16.44,8.86,9.82,6.78,12.58,16.81,10.52,28.1-1.89,10.37-8.74,16.55-18.59,19.58-15.84,4.88-35.58.88-45.45-12.85-1.13-1.57-2.11-3.26-3.36-5.21,5.49-3.15,10.75-6.18,16.02-9.2,1.41,1.79,2.55,3.37,3.82,4.84,5.62,6.47,12.76,8.03,20.8,6.11,3.98-.95,6.88-3.34,7.48-7.71.56-4.11-1.35-7.13-4.78-9.03-3.82-2.11-7.93-3.7-11.79-5.75-5.41-2.87-11.12-5.4-15.95-9.08-8.7-6.63-11.86-19.17-8.33-29.61,3.36-9.94,12.69-16.72,23.87-17.32,8.48-.46,16.73.36,23.46,6.18,2.96,2.56,5.29,5.83,8.15,9.05Z"/>
      <path class="cls-1" d="m236.71,415.21h19.53c.07.75.18,1.38.18,2.01,0,21.47.07,42.94-.03,64.4-.03,6.8-1.31,13.38-5.45,19.03-3.95,5.39-9.48,8.3-15.93,9.5-10.44,1.94-20.24.6-28.8-6.19-3.64-2.88-6.25-6.59-8.4-11.09,5.35-3.22,10.57-6.36,15.96-9.61,1.1,1.69,2,3.19,3,4.61,2.33,3.32,5.41,5.33,9.62,5.33,6.08,0,9.11-2.58,9.93-8.64.21-1.56.36-3.15.36-4.73.03-20.53.03-41.07.03-61.6,0-.91,0-1.83,0-3.03Z"/>
    </g>
    <g>
      <g>
        <path class="cls-1" d="m272.06,0h239.73c-.57,7.41-1.12,14.64-1.7,21.87-1.41,17.49-2.8,34.99-4.25,52.47-1.88,22.58-3.87,45.15-5.72,67.73-1.4,17.08-2.66,34.17-4.01,51.25-1.25,15.84-2.49,31.68-3.94,47.5-.12,1.26-1.66,3.13-2.78,3.39-30.81,7.02-61.67,13.76-92.47,20.83-5.94,1.36-11.35-.56-16.88-1.76-24.4-5.28-48.76-10.82-73.13-16.27-4.02-.9-8.02-1.99-12.08-2.58-2.22-.32-3.04-1.41-3.21-3.64-1.01-13.23-1.99-26.46-3.07-39.69-1.4-17.07-2.92-34.13-4.34-51.2-1.08-13.08-2.04-26.18-3.12-39.26-1.44-17.48-2.98-34.96-4.41-52.44-1.08-13.22-2.06-26.45-3.1-39.68-.48-6.05-.98-12.1-1.51-18.51Zm21.86,22.43c.72,8.67,1.44,17.04,2.11,25.42,1.06,13.37,2.05,26.74,3.14,40.1,1.41,17.21,2.94,34.41,4.36,51.62,1.1,13.36,2.08,26.73,3.18,40.1,1.13,13.77,2.51,27.52,3.4,41.31.23,3.57,1.4,4.54,4.26,5.16,22.94,4.98,45.85,10.15,68.78,15.2,4.7,1.03,9.26,2.37,14.3.76,6.43-2.05,13.14-3.03,19.73-4.47,17.81-3.9,35.63-7.76,53.42-11.79,1.13-.26,2.8-1.72,2.91-2.79.97-9.62,1.66-19.27,2.42-28.91,1.06-13.5,2.05-27.02,3.16-40.51,1.4-17.07,2.93-34.14,4.33-51.21,1.11-13.5,2.08-27.01,3.18-40.51,1.07-13.07,2.25-26.12,3.41-39.49h-196.06Z"/>
        <path class="cls-1" d="m345.87,166.46c.62,7.23,1.23,14.35,1.86,21.79,10.42,2.33,20.82,4.31,31.05,7.05,8.79,2.35,17.3,2.46,26.12.05,10.23-2.8,20.66-4.72,31.27-7.08,1.23-14.69,2.45-29.25,3.7-44.26h-115.84c-.38-7.25-.85-14.1-.97-20.97-.02-.93,1.56-2.2,2.64-2.8,23.21-13.06,46.46-26.05,69.69-39.05,8.32-4.66,16.64-9.32,24.87-14.67h-102.61c-.6-7.56-1.17-14.67-1.76-22.14h152.13c-.61,7.04-1.04,13.9-1.94,20.69-.16,1.25-2.06,2.49-3.38,3.23-29.88,16.79-59.8,33.51-89.71,50.25-1.42.8-2.82,1.64-4.12,3.28h92.85c-2.34,28.55-4.63,56.47-6.95,84.83-8.55,1.96-17.14,3.98-25.75,5.89-10.97,2.44-22.02,4.53-32.93,7.27-5.97,1.5-11.32-.88-16.84-2.05-16.25-3.43-32.45-7.17-48.66-10.79-.46-.1-.91-.25-1.46-.41-1.1-13.36-2.18-26.56-3.29-40.11h20.04Z"/>
      </g>
      <g>
        <path class="cls-1" d="m.27.81h239.45c-1.05,12.41-2.01,24.49-3.09,36.55-1.54,17.23-3.15,34.45-4.75,51.68-1.92,20.7-3.91,41.39-5.8,62.1-1.45,15.91-2.79,31.82-4.15,47.74-1.08,12.6-2.16,25.19-3.14,37.79-.21,2.73-1.44,3.99-4.08,4.7-30.44,8.15-60.83,16.45-91.29,24.54-2.41.64-5.31.47-7.75-.18-30.13-8.02-60.2-16.24-90.32-24.28-3.09-.82-4.23-2.31-4.49-5.43-2.28-27.85-4.59-55.71-7.1-83.54-3.11-34.46-6.46-68.89-9.66-103.34C2.66,33.56,1.35,17.98,0,2.4c-.04-.45.15-.93.27-1.6Zm28.88,26.35c.66,8.44,1.21,16.55,1.95,24.63,1.88,20.53,3.89,41.05,5.75,61.59,1.49,16.4,2.77,32.82,4.24,49.22,1.53,17.06,3.37,34.1,4.6,51.18.31,4.25,1.64,6,5.64,7.06,20.36,5.38,40.63,11.08,60.98,16.51,3.26.87,7,1.94,10.08,1.16,20.41-5.17,40.71-10.76,61.01-16.34,9.71-2.67,9.67-2.79,10.65-12.73.24-2.48.59-4.96.82-7.44,1.57-17.06,3.15-34.11,4.68-51.17,1.49-16.56,2.87-33.14,4.38-49.7,1.5-16.4,3.14-32.78,4.64-49.17.75-8.2,1.32-16.42,1.98-24.8H29.15Z"/>
        <path class="cls-1" d="m54.2,152.19h29.84c.6,6.65,1.44,13.35,1.7,20.08.13,3.22,1.13,4.71,4.27,5.43,5.97,1.38,11.96,2.85,17.76,4.81,8.13,2.75,16.02,2.81,24.17.05,5.95-2.02,12.2-3.17,18.2-5.08,1.48-.47,3.4-2.3,3.56-3.69,1.26-10.9,2.14-21.84,3.12-32.77.06-.63-.08-1.28-.17-2.4H52.7c-2.83-29.68-5.62-58.92-8.46-88.63h151.15c-.93,9.28-1.87,18.6-2.87,28.55h-114.97c.89,10.35,1.73,20.01,2.61,30.19h109.52c-.74,8.65-1.38,16.71-2.11,24.76-1.88,20.7-3.74,41.41-5.83,62.09-.16,1.58-1.88,3.91-3.32,4.32-18.8,5.39-37.59,10.94-56.63,15.36-4.68,1.09-10.33-1.48-15.41-2.83-14.27-3.77-28.43-7.94-42.72-11.6-4.16-1.06-5.77-2.65-6.04-7.21-.72-12.28-2.23-24.51-3.39-36.76-.14-1.45-.02-2.92-.02-4.68Z"/>
      </g>
    </g>
  </g>
</svg>