<?xml version="1.0" encoding="utf-8"?>
<!-- Generator: Adobe Illustrator 27.4.1, SVG Export Plug-In . SVG Version: 6.00 Build 0)  -->
<svg version="1.1" id="Layer_1" xmlns="http://www.w3.org/2000/svg" xmlns:xlink="http://www.w3.org/1999/xlink" x="0px" y="0px"
	 viewBox="0 0 1080 1080" style="enable-background:new 0 0 1080 1080;" xml:space="preserve">
<g>
	<path d="M215.99,1055c-19.42-18.87-38.85-37.73-58.26-56.61c-6.1-5.94-7.19-12.56-5.05-21.02
		c18.34-72.36,36.19-144.84,54.46-217.22c1.83-7.26,1.29-12.89-2.7-19.59c-41.93-70.57-72.73-145.7-85.94-226.9
		c-20.14-123.78,4.64-237.18,83.94-336.39c50.94-63.73,118.01-102.8,195.32-126.01c75.02-22.52,151.4-31.52,229.34-22.33
		c89.4,10.54,171.13,40.57,240.35,99.79c53.34,45.63,88.35,103.56,110.84,169.47c18.39,53.91,27.78,109.61,32.26,166.22
		c4.01,50.66,3,101.07-7.29,151.1c-13.76,66.9-45.5,124.81-88.04,177.28c-47.85,59.03-109.83,97.24-181.22,121.17
		c-60.53,20.29-122.94,29.68-186.61,30.55c-26.42,0.36-52.85-1.26-79.29-1.65c-3.8-0.06-7.92,1.09-11.41,2.71
		c-77.78,35.94-155.49,72.03-233.2,108.12c-0.57,0.27-0.98,0.87-1.47,1.32C220.02,1055,218.01,1055,215.99,1055z M364.61,879.12
		c1.63-1.79,2.81-3.44,4.32-4.69c10.41-8.59,12.48-8.41,20.78,2.06c5.2,6.56,10.18,13.31,15.27,19.97
		c14.76,19.31,18.85,19.55,37.34,3.54c4.66-4.04,4.93-7.44,1.22-11.76c-6.11-7.12-12.38-14.1-18.32-21.35
		c-2.71-3.3-8.12-6.68-2.32-11.6c5.28-4.48,10.33-5.37,15.37,1.13c7.19,9.26,14.92,18.11,22.56,27.01
		c3.32,3.87,6.05,9.84,12.88,5.63c7.04-4.34,2.1-9.5,0.42-14.03c-2.91-7.83-6.95-15.27-9.57-23.18c-1.54-4.66-8.36-10.36-0.96-14.73
		c7.26-4.28,12.78-0.91,16.82,6.66c4.87,9.14,12.11,17.11,16.28,26.5c6.46,14.54,18.12,15.31,31.93,15.17
		c-4.39-11.71-8.68-22.57-12.47-33.6c-1.47-4.28-5.74-9.88,1.82-12.67c6.7-2.47,14.17-6.43,19.46,2.61
		c4.9,8.38,9.77,16.78,14.38,25.32c11.2,20.77,11.14,20.82,34.61,16.92c0.54-0.09,0.99-0.71,2-1.47
		c-5.8-11.86-11.8-23.75-17.36-35.83c-1.08-2.36-1.7-6.39-0.43-8.11c4.73-6.45,20.44-5.42,24.37,1.61
		c6.04,10.8,11.24,22.06,17.17,32.92c1.4,2.56,4.51,6.3,6.47,6.09c10.08-1.06,20.04-3.23,31.55-5.29
		c-5.6-11.18-10.45-20.3-14.75-29.67c-1.82-3.98-7.49-8.87,0.03-12.63c6.15-3.08,12.84-5.25,17.46,2.79
		c4.66,8.12,9.31,16.26,13.76,24.5c4.04,7.47,17.96,10,26.91,3.78c7.81-5.42,0.48-10.83-1.89-15.34c-2.9-5.52-4.46-9.44,1.98-13.3
		c6.4-3.82,11.22-3.41,14.81,3.65c1.97,3.88,4.8,7.39,6.3,11.42c2.51,6.76,5.98,7.46,12.94,5.66c35.56-9.2,65.19-29.35,94.28-50.31
		c39.91-28.76,78.86-59.69,102.01-103.83c17.27-32.93,29.87-68.69,41.29-104.24c23.69-73.75,28.64-149.13,11.74-225.16
		c-19-85.5-61.62-158.02-124.07-218.85C788.94,90.04,712.94,53.55,622.64,49.47c-84.07-3.8-166.47,5.87-247.23,29.82
		c-45.35,13.45-85,35.09-115.44,72.57c-47.99,59.1-81.94,125.17-102.93,198.24c-17.99,62.64-19.58,125.31-3.19,188.49
		c18.2,70.16,47.17,135.79,82.2,198.99c2.47,4.46,3.89,10.95,2.73,15.76C221.5,825.25,203.71,897.05,186,968.87
		c-3.8,15.42,8,27.21,23.27,23.1c3.55-0.96,7.07-2.1,10.48-3.48c26.55-10.74,53.07-21.56,80.5-32.72
		c-4.57-7.22-8.86-12.51-11.35-18.54c-1.19-2.88,0.12-7.85,2.12-10.51c0.99-1.33,6.91-0.72,9.14,0.95
		c5.86,4.4,10.74,10.08,16.41,14.77c1.88,1.56,5.45,2.97,7.39,2.22c6.08-2.36,11.75-5.78,19.56-9.82
		c-9.4-9.94-17.53-18.54-25.52-26.99c9.29-14.36,13.9-14.85,24.09-2.85c5.86,6.9,11.26,14.19,17.37,20.85
		c1.8,1.96,5.67,3.74,7.99,3.16c7.33-1.81,14.38-4.78,22.24-7.56C381.04,906.85,372.88,893.08,364.61,879.12z"/>
	<path d="M562.46,802.46c-32.22-3.57-64.48-6.83-96.63-10.9c-9.22-1.17-16.53,0.14-24.21,5.79
		c-54.49,40.13-109.3,79.83-163.99,119.71c-8.53,6.22-16.88,10.48-27.55,3.86c-7.29-4.52-9.26-9.02-5.77-17.29
		c20.55-48.7,40.53-97.64,61.04-146.36c3.22-7.65,2.39-13.1-2.56-19.98c-41.17-57.26-74.38-118.59-90.63-187.8
		c-25.41-108.26-5.78-207.74,58.63-298.75c31.72-44.82,67.15-85.23,115.84-112.3c33.49-18.61,69.58-29.55,107.14-35.61
		c47.37-7.65,94.97-11.96,143.09-8.2c55.27,4.32,103.97,24.76,146.39,59.77c59.27,48.91,106.98,106.95,135.89,178.99
		c21.2,52.83,27.29,108.11,25.78,164.57c-1.08,40.45-6.35,80.14-21.67,117.9c-28.95,71.34-81.93,117.74-152.51,145.41
		c-66.82,26.2-136,40.09-208.01,38.49C562.65,800.67,562.56,801.56,562.46,802.46z M299.67,862.3c0.65,0.48,1.3,0.97,1.95,1.45
		c3.08-1.94,6.23-3.78,9.23-5.84c42.25-29,84.61-57.84,126.61-87.19c10.36-7.24,20.37-9.06,32.8-6.39
		c26.45,5.7,53.15,13.49,79.88,14.07c80.59,1.75,158.78-12.63,232.23-46.78c50.23-23.35,88.38-60.65,111.5-111.25
		c37.07-81.11,37.14-164.86,12.91-249.24c-19.2-66.87-60.37-118.85-114.44-161.1C721.9,155,641.61,129.06,552.5,135.08
		c-72.87,4.92-138.33,32.42-197.71,74.38c-35.22,24.9-64.65,55.14-83.29,94.79c-27.68,58.85-36.63,121.1-36.06,185.62
		c0.58,66.15,20.16,125.69,56.82,180.18c15.89,23.61,31.3,47.55,47.35,71.05c4.45,6.52,5.14,12.28,2.07,19.48
		c-9.7,22.77-18.95,45.73-28.38,68.62C308.77,840.23,304.22,851.27,299.67,862.3z"/>
	<path d="M641.95,740.56c-45.46-0.56-83.9-17.29-114.2-50.81c-60.64-67.1-114.14-139.39-154.55-220.66
		c-14.35-28.87-26.3-58.73-25.01-92.02c1.59-40.89,20.33-74.26,45.95-104.55c4.75-5.61,10.36-10.48,15.42-15.83
		c13.53-14.28,29.67-15.66,47.06-9.15c24.07,9.01,41.82,26.22,57.11,46.09c18.61,24.18,35.5,49.37,46.98,78.01
		c7.13,17.78,5.22,31.93-9.69,44.88c-11.97,10.4-11.92,11.46-3.37,25.05c19.77,31.45,39.9,62.68,60.39,93.66
		c7.52,11.37,8.28,11.1,19.44,2.59c18.11-13.81,36.24-27.61,53.95-41.91c7.76-6.27,13.38-5.96,20.34,1.35
		c27.9,29.34,57.62,57.08,84.01,87.71c23.6,27.39,27.68,36.22,4.73,76.92c-25.38,45-67.41,66.31-116.67,75.16
		C663.34,738.93,652.59,739.43,641.95,740.56z M757.32,659.07c6.19-11.44,10.87-20.95,16.36-29.97c5.48-9.01,5.28-17.02-2.35-24.4
		c-25.97-25.11-52.04-50.13-78.03-75.22c-4.5-4.35-8.94-3.93-13.29-0.09c-9.79,8.63-19.6,17.25-29.16,26.14
		c-10.06,9.35-19.61,19.25-29.87,28.38c-4.36,3.88-9.86,8.18-15.95,2.42c-13.83-13.05-29.62-24.7-40.79-39.75
		c-25.32-34.12-48.28-69.99-72.34-105.05c-6.82-9.93-4.78-19.66,1.74-27.92c7.82-9.91,16.49-19.5,26.23-27.45
		c8.62-7.04,9.86-13.39,3.89-22.08c-3.6-5.24-6.48-11.1-10.7-15.77c-20.88-23.08-41.81-46.14-63.34-68.61
		c-9.67-10.09-16.8-10.1-28.16-1.62c-5.57,4.16-10.99,9.05-15.04,14.65c-23.83,32.9-33.09,70.01-28.47,110.1
		c3.71,32.19,20.11,59.42,38.25,85.27c40.08,57.09,88.91,106.33,140.25,153.13c19.12,17.43,40.2,32.59,65.58,39.8
		c9.5,2.7,19.65,3.11,29.5,4.57c0.45-1.13,0.91-2.27,1.36-3.4c-7.34-11.74-14.68-23.48-21.97-35.14
		c12.42-8.77,17.64-8.12,25.31,2.41c7.1,9.75,14.82,19.1,21.18,29.3c5.2,8.35,10.39,7.17,17.45,3.1c8.36-4.82,4.05-9.86,0.9-14.86
		c-2.67-4.24-5.78-8.21-8.77-12.25c-4.87-6.58-9.8-13.11-14.62-19.54c13.12-11.41,15.92-11.25,24.5,1.16
		c8.36,12.08,16.43,24.36,25.19,37.41c3.9-2.54,7.31-4.77,11.46-7.47c-4.39-6.14-7.9-11.41-11.78-16.41
		c-6.36-8.2-13.26-16.01-19.35-24.41c-3.75-5.18-5.07-11.53,0.42-16.39c5.4-4.78,11.94-4.79,17.34,0.14
		c4.91,4.48,9.52,9.47,13.41,14.86C741.26,634.65,748.28,645.63,757.32,659.07z"/>
	<path d="M433.86,394.42c-33.01,2.58-39.72-4.24-32.72-33.71c3.28-13.83,8.73-27.22,14.19-40.4c2.06-4.97,6.23-9.81,10.71-12.78
		c3.13-2.07,9.84-2.65,12.41-0.65c3.25,2.54,6.61,9.51,5.3,12.62C433.64,343.46,430.98,368.27,433.86,394.42z"/>
</g>
</svg>
